<svg xmlns="http://www.w3.org/2000/svg" xmlns:xlink="http://www.w3.org/1999/xlink" viewBox="0 0 5742.46 817.18"><defs><style>.cls-1{fill:none;}.cls-2{clip-path:url(#clip-path);}.cls-3{fill:url(#linear-gradient);}.cls-4{fill:#fffeff;}.cls-5{fill:#f04f24;}.cls-6{fill:#f04e23;}.cls-7{fill:#5e5e5e;}</style><clipPath id="clip-path" transform="translate(0 -0.65)"><ellipse class="cls-1" cx="437.5" cy="299.08" rx="295.96" ry="299.08"></ellipse></clipPath><linearGradient id="linear-gradient" x1="227.37" y1="509.45" x2="648.13" y2="88.7" gradientUnits="userSpaceOnUse"><stop offset="0" stop-color="#127039"></stop><stop offset="0.15" stop-color="#1c773a"></stop><stop offset="0.41" stop-color="#37893b"></stop><stop offset="0.75" stop-color="#63a73d"></stop><stop offset="1" stop-color="#88c13f"></stop></linearGradient></defs><title>Asset 2</title><g id="Layer_2" data-name="Layer 2"><g id="Layer_1-2" data-name="Layer 1"><polygon class="cls-5" points="4540.28 155.94 4470.28 155.94 4470.28 83.14 4699.89 83.14 4699.89 155.94 4621.49 155.94 4624.29 505.94 4543.09 505.94 4540.28 155.94"></polygon><polygon class="cls-6" points="933.86 508.74 933.86 161.54 855.46 161.54 855.46 83.14 1090.66 83.14 1090.66 161.54 1015.06 161.54 1015.06 508.74 933.86 508.74"></polygon><path class="cls-6" d="M1124.26,83.79v425.6h81.2v-182c0-86.8,120.4-98,120.4-5.6,5.6,114.8,2.8,187.6,2.8,187.6h78.4V307.79s0-100.8-95.2-120.4c-75.6-16.8-109.2,30.8-109.2,30.8V83.79Z" transform="translate(0 -0.65)"></path><polygon class="cls-6" points="1519.07 153.14 1591.87 71.94 1656.27 71.94 1723.47 153.14 1653.47 153.14 1619.87 122.34 1591.87 153.14 1519.07 153.14"></polygon><polygon class="cls-6" points="1706.67 88.74 1793.47 4.74 1843.87 41.14 1740.27 111.14 1706.67 88.74"></polygon><path class="cls-6" d="M1656.27,187.39c-109.2-28-232.4,67.2-198.8,210s240.8,173.6,310.8,25.2h-86.8s-92.4,75.6-148.4-33.6l240.8-2.8S1815.87,246.19,1656.27,187.39ZM1533.07,319c64.4-112,162.4-44.8,170.8,0Z" transform="translate(0 -0.65)"></path><path class="cls-5" d="M2429.07,215.39s-64.4-159.6-243.6-137.2c-176.4,44.8-215.6,232.4-156.8,324.8s204.4,193.2,369.6,36.4c0,0,53.2-42,47.6-145.6h-274.4l2.8,75.6h173.6s-75.6,137.2-207.2,44.8c-75.6-58.8-86.8-190.4,16.8-246.4s170.8,33.6,176.4,47.6Z" transform="translate(0 -0.65)"></path><rect class="cls-5" x="2493.47" y="192.34" width="78.4" height="327.6"></rect><rect class="cls-5" x="2493.47" y="83.14" width="78.4" height="75.6"></rect><polygon class="cls-5" points="2731.47 136.34 2815.47 49.54 2865.87 85.94 2759.47 155.94 2731.47 136.34"></polygon><rect class="cls-5" x="3019.88" y="83.14" width="78.4" height="75.6"></rect><rect class="cls-5" x="3019.88" y="192.34" width="78.4" height="327.6"></rect><polygon class="cls-5" points="3397.88 161.54 3322.28 161.54 3322.28 83.14 3557.48 83.14 3557.48 161.54 3479.08 161.54 3479.08 508.74 3397.88 508.74 3397.88 161.54"></polygon><path class="cls-5" d="M3588.28,83.79v425.6h81.2V321.79c0-78.4,123.2-98,123.2,11.2v176.4h78.4V310.59s-2.8-98-95.2-123.2c-78.4-16.8-109.2,30.8-109.2,30.8V83.79Z" transform="translate(0 -0.65)"></path><path class="cls-5" d="M4097.88,184.59c-159.6-5.6-235.2,151.2-145.6,274.4,95.2,117.6,268.8,36.4,277.2-36.4h-84s-92.4,72.8-148.4-33.6h243.6S4271.48,215.39,4097.88,184.59ZM3997.08,319c56-109.2,159.6-56,168,0Z" transform="translate(0 -0.65)"></path><polygon class="cls-5" points="3983.08 153.14 4058.68 69.14 4114.68 69.14 4193.08 153.14 4120.28 153.14 4089.48 119.54 4053.08 153.14 3983.08 153.14"></polygon><path class="cls-5" d="M4153.88,55.79l-19.6-14s36.4-58.8,84-28c0,0,42,28,5.6,64.4,0,0-22.4,16.8-22.4,28,0,0-22.4,0-28-5.6s14-25.2,19.6-28,25.2-42-16.8-36.4C4176.28,36.19,4167.88,36.19,4153.88,55.79Z" transform="translate(0 -0.65)"></path><path class="cls-5" d="M4733.49,83.79v422.8h78.4V319c0-72.8,120.4-106.4,123.2,8.4,2.8,134.4,0,179.2,0,179.2h81.2V299.39s-8.4-109.2-112-120.4c-53.2-5.6-92.4,33.6-92.4,33.6V83.79Z" transform="translate(0 -0.65)"></path><path class="cls-5" d="M5677.09,218.19c-140-89.6-249.2,28-266,92.4-22.4,106.4,56,170.8,56,170.8,112,86.8,210,2.8,210,2.8C5752.69,433.79,5775.09,291,5677.09,218.19Zm-103.6,232.4a95.2,95.2,0,1,1,95.2-95.2A95.2,95.2,0,0,1,5573.49,450.59Z" transform="translate(0 -0.65)"></path><path class="cls-5" d="M2961.07,201.39v-75.6h-84v58.8h36.4v16.8s2.8,14-22.4,22.4c0,0-47.6-47.6-120.4-39.2,0,0-159.6,8.4-156.8,182,19.6,142.8,168,187.6,260.4,123.2s86.8-173.6,42-240.8C2916.27,249,2935.87,246.19,2961.07,201.39Zm-180.6,240.8a91,91,0,1,1,91-91A91,91,0,0,1,2780.47,442.19Z" transform="translate(0 -0.65)"></path><path class="cls-5" d="M5304.69,193v42s-78.4-117.6-218.4,0c-89.6,112-22.4,257.6,67.2,277.2,0,0,84,36.4,151.2-42v36.4h72.8V193Zm-92.4,254.8a95.2,95.2,0,1,1,95.2-95.2A95.2,95.2,0,0,1,5212.29,447.79Z" transform="translate(0 -0.65)"></path><path class="cls-5" d="M5208.62,182.78s-98,.73-136.77,72.67S5212.29,221,5212.29,221Z" transform="translate(0 -0.65)"></path><path class="cls-5" d="M5304.69,235s-56.44-97.85-189.22-25.13l180.82,33.53Z" transform="translate(0 -0.65)"></path><path class="cls-5" d="M5408.29,333c8.4-154,233.36-187.6,295.88-86.8s-133.48-19.6-133.48-19.6l-128.8,70Z" transform="translate(0 -0.65)"></path><path class="cls-5" d="M2058.86,439.43s54.7,80.09,165.87,79l-131.65-97.71Z" transform="translate(0 -0.65)"></path><path class="cls-5" d="M2014.62,374.33s44,139.93,215.05,146.26L2050.31,366.87Z" transform="translate(0 -0.65)"></path><path class="cls-5" d="M2242.4,520.14S2367,515.68,2430.78,391.6Z" transform="translate(0 -0.65)"></path><path class="cls-7" d="M4071.2,643.93h9.05l27.87,75.59h-11.44l-21-61-20.95,61h-11.44Zm-15,48.92H4096v10.09h-39.77Z" transform="translate(0 -0.65)"></path><path class="cls-7" d="M4245.06,643.93H4255v75.59h-10.34V662.91l.51,3.32L4226.55,709h-7.38l-18.61-41.75.52-4.36v56.61h-10.35V643.93h9.93l22.2,49.91Z" transform="translate(0 -0.65)"></path><path class="cls-7" d="M4295,643.93h10.61v75.59H4295Zm5.15,0h43.41V654h-43.41Zm0,33h37.69V687h-37.69Zm0,32.5h43.41v10.08h-43.41Z" transform="translate(0 -0.65)"></path><path class="cls-7" d="M4434.25,643.93h9.93v75.59h-10.34V662.91l.52,3.32L4415.75,709h-7.39l-18.61-41.75.52-4.36v56.61h-10.34V643.93h9.93l22.2,49.91Z" transform="translate(0 -0.65)"></path><path class="cls-7" d="M4484.19,643.93h10.56v75.59h-10.56Zm6.24,65.77h20.48q8.07,0,11.75-3.07a10.6,10.6,0,0,0,3.69-8.63v-.16a15.18,15.18,0,0,0-1.32-6.6,9.15,9.15,0,0,0-4.19-4.24,15.85,15.85,0,0,0-7.33-1.48h-23.08V676h23.08c3.92,0,6.87-.92,8.87-2.76s3-4.56,3-8.16c0-3.78-1.11-6.6-3.33-8.48s-5.55-2.8-10-2.8h-21.63v-9.83H4514a27,27,0,0,1,12.27,2.5,16.58,16.58,0,0,1,7.38,7.07,22.85,22.85,0,0,1,2.45,10.91,18,18,0,0,1-1.51,7.31,15.11,15.11,0,0,1-4.6,5.82,17.2,17.2,0,0,1-7.67,3.25,16.59,16.59,0,0,1,7.9,3.25,16.94,16.94,0,0,1,5.1,6.42,19.83,19.83,0,0,1,1.76,8.32v.15a21.27,21.27,0,0,1-2.7,10.82,18.06,18.06,0,0,1-7.75,7.22,25.67,25.67,0,0,1-11.74,2.55h-24.44Z" transform="translate(0 -0.65)"></path><path class="cls-7" d="M4574.21,643.93h10.61v75.59h-10.61Zm5.15,0h43.41V654h-43.41Zm0,33h37.69V687h-37.69Zm0,32.5h43.41v10.08h-43.41Z" transform="translate(0 -0.65)"></path><path class="cls-7" d="M4659.14,643.88h10.61v75.64h-10.61Zm4.63,33.58h25.78a9.94,9.94,0,0,0,5.36-1.45,9.56,9.56,0,0,0,3.61-4.14,15.46,15.46,0,0,0,0-12.32,9.61,9.61,0,0,0-3.59-4.13,9.87,9.87,0,0,0-5.38-1.46h-25.78V643.88h25.37a23.73,23.73,0,0,1,11.51,2.7,19,19,0,0,1,7.7,7.67,25.32,25.32,0,0,1,0,22.93,19.1,19.1,0,0,1-7.72,7.66,23.5,23.5,0,0,1-11.46,2.71h-25.37Zm20.59,7.75,10.55-2.39,19.34,36.7h-12.58Z" transform="translate(0 -0.65)"></path><path class="cls-7" d="M4810.8,716.84a23.58,23.58,0,0,1-9.33-9.77,31.15,31.15,0,0,1-3.3-14.63V671a31.16,31.16,0,0,1,3.3-14.64,23.58,23.58,0,0,1,9.33-9.77,29.77,29.77,0,0,1,27.86,0,23.66,23.66,0,0,1,9.34,9.77,31.16,31.16,0,0,1,3.3,14.64v21.42a31.15,31.15,0,0,1-3.3,14.63,23.66,23.66,0,0,1-9.34,9.77,29.77,29.77,0,0,1-27.86,0Zm22.17-9.09a14.18,14.18,0,0,0,5.51-6,19.68,19.68,0,0,0,2-9V670.65a19.74,19.74,0,0,0-2-9,14.1,14.1,0,0,0-5.51-6,17.14,17.14,0,0,0-16.48,0,14.16,14.16,0,0,0-5.51,6,19.74,19.74,0,0,0-1.95,9V692.8a19.68,19.68,0,0,0,1.95,9,14.25,14.25,0,0,0,5.51,6,17.22,17.22,0,0,0,16.48,0Z" transform="translate(0 -0.65)"></path><path class="cls-7" d="M4888.71,643.93h10.6v75.59h-10.6Zm5.2,0h42.37V654h-42.37Zm0,33.69h36.65V687.7h-36.65Z" transform="translate(0 -0.65)"></path><path class="cls-7" d="M5011.62,643.93h11.54l18.14,59.27,18.14-59.27H5071l-24.65,75.59h-10.08Z" transform="translate(0 -0.65)"></path><path class="cls-7" d="M5103.72,643.93h10.6v75.59h-10.6Zm5.14,0h43.41V654h-43.41Zm0,33h37.7V687h-37.7Zm0,32.5h43.41v10.08h-43.41Z" transform="translate(0 -0.65)"></path><path class="cls-7" d="M5205.54,720.3l-5.95-3.48a23.64,23.64,0,0,1-9.23-9.88,32.1,32.1,0,0,1-3.28-14.82V671.38a32.16,32.16,0,0,1,3.28-14.82,23.81,23.81,0,0,1,9.23-9.9,26.67,26.67,0,0,1,13.8-3.51,26,26,0,0,1,12,2.78,25.2,25.2,0,0,1,9.12,7.88,29.68,29.68,0,0,1,5,11.8h-10.87a16.94,16.94,0,0,0-3.3-6.32,16.25,16.25,0,0,0-5.43-4.29,15.29,15.29,0,0,0-14.56.73,14.91,14.91,0,0,0-5.41,6.27,21.55,21.55,0,0,0-1.92,9.38v20.74a21.62,21.62,0,0,0,1.92,9.36,14.25,14.25,0,0,0,13.52,8.47,15.41,15.41,0,0,0,6.47-1.4,15.14,15.14,0,0,0,5.41-4.16,16.49,16.49,0,0,0,3.3-6.55h10.87a29.36,29.36,0,0,1-5,11.8,25.53,25.53,0,0,1-9.15,7.88,25.91,25.91,0,0,1-11.91,2.78Z" transform="translate(0 -0.65)"></path><path class="cls-7" d="M5377.37,678.81V692a32.15,32.15,0,0,1-3.28,14.84,23.63,23.63,0,0,1-9.28,9.93,27,27,0,0,1-13.9,3.51,28.89,28.89,0,0,1-14.06-3.3,23.18,23.18,0,0,1-9.39-9.33,28.46,28.46,0,0,1-3.33-14v-22.3a32.16,32.16,0,0,1,3.28-14.82,23.73,23.73,0,0,1,9.28-9.9,27,27,0,0,1,13.91-3.51,26.17,26.17,0,0,1,12,2.78,25.43,25.43,0,0,1,9.17,7.88,29.3,29.3,0,0,1,5,11.8h-11.49a16.48,16.48,0,0,0-3.18-6.53,15.16,15.16,0,0,0-5.25-4.15,14.3,14.3,0,0,0-6.23-1.43,15.07,15.07,0,0,0-8.22,2.23,14.67,14.67,0,0,0-5.46,6.27,21.55,21.55,0,0,0-1.92,9.38v22.3a17.81,17.81,0,0,0,2,8.55,14,14,0,0,0,5.59,5.7,16.79,16.79,0,0,0,8.35,2,15.77,15.77,0,0,0,8.21-2.1,13.86,13.86,0,0,0,5.46-6.11,21.81,21.81,0,0,0,1.92-9.51V689h-15.33V678.81Z" transform="translate(0 -0.65)"></path><path class="cls-7" d="M5414.78,643.88h10.6v75.64h-10.6Zm4.63,33.58h25.78a9.94,9.94,0,0,0,5.36-1.45,9.56,9.56,0,0,0,3.61-4.14,15.57,15.57,0,0,0,0-12.32,9.68,9.68,0,0,0-3.59-4.13,9.87,9.87,0,0,0-5.38-1.46h-25.78V643.88h25.37a23.73,23.73,0,0,1,11.51,2.7,19,19,0,0,1,7.7,7.67,23.51,23.51,0,0,1,2.72,11.46,23.2,23.2,0,0,1-2.75,11.47,19.1,19.1,0,0,1-7.72,7.66,23.5,23.5,0,0,1-11.46,2.71h-25.37Zm20.58,7.75,10.56-2.39,19.34,36.7H5457.3Z" transform="translate(0 -0.65)"></path><path class="cls-7" d="M5514.47,716.84a23.58,23.58,0,0,1-9.33-9.77,31.15,31.15,0,0,1-3.3-14.63V671a31.16,31.16,0,0,1,3.3-14.64,23.58,23.58,0,0,1,9.33-9.77,29.79,29.79,0,0,1,27.87,0,23.58,23.58,0,0,1,9.33,9.77A31.16,31.16,0,0,1,5555,671v21.42a31.15,31.15,0,0,1-3.3,14.63,23.58,23.58,0,0,1-9.33,9.77,29.79,29.79,0,0,1-27.87,0Zm22.17-9.09a14.18,14.18,0,0,0,5.51-6,19.68,19.68,0,0,0,2-9V670.65a19.74,19.74,0,0,0-2-9,14.1,14.1,0,0,0-5.51-6,17.14,17.14,0,0,0-16.48,0,14.16,14.16,0,0,0-5.51,6,19.74,19.74,0,0,0-1.95,9V692.8a19.68,19.68,0,0,0,1.95,9,14.25,14.25,0,0,0,5.51,6,17.22,17.22,0,0,0,16.48,0Z" transform="translate(0 -0.65)"></path><path class="cls-7" d="M5602.49,717a21.67,21.67,0,0,1-9.07-9.62,34,34,0,0,1-3.12-15.2V643.93h10.6v48.61q0,8.26,4.16,12.79t11.75,4.52q7.65,0,11.83-4.52t4.19-12.79V643.93h10.6v48.25a34,34,0,0,1-3.12,15.2,21.63,21.63,0,0,1-9.1,9.62,32.89,32.89,0,0,1-28.72,0Z" transform="translate(0 -0.65)"></path><path class="cls-7" d="M5681.36,643.93H5692v75.59h-10.61Zm5.46,36.18H5711a11.14,11.14,0,0,0,6-1.61,10.64,10.64,0,0,0,4-4.57,17.07,17.07,0,0,0,0-13.68,10.89,10.89,0,0,0-4-4.6,11.07,11.07,0,0,0-6-1.63h-24.17V643.93h23.81a23.86,23.86,0,0,1,11.9,2.89,19.9,19.9,0,0,1,8,8.13,27.43,27.43,0,0,1,0,24.31,19.84,19.84,0,0,1-8,8.08,24.06,24.06,0,0,1-11.9,2.86h-23.81Z" transform="translate(0 -0.65)"></path></g></g></svg>