<svg id="Layer_1" enable-background="new 0 0 511.267 511.267" height="512" viewBox="0 0 511.267 511.267" width="512" xmlns="http://www.w3.org/2000/svg"><g><g><path d="m256.267.633c-98.131 0-158.58 55.352-158.747 55.445 0 0-2.513 3.137-2.983 5.222-3.818 16.948-7.385 39.663-7.385 56.238 0 35.833 7.702 69.93 21.487 100.866h381.895l16.075-11.463c-22.729-117.539-126.163-206.308-250.342-206.308z" fill="#afe6ff"></path><g><path d="m115.723 218.406c-15.385-32.821-23.997-69.448-23.997-108.093 0-18.615 2.007-36.753 5.795-54.234-49.469 39.409-83.968 96.824-93.554 162.327z" fill="#73c8f0"></path></g></g><path d="m470.937 268.961h-469.328c6.933 134.638 118.296 241.672 254.657 241.672 121.17 0 224.116-84.98 249.199-200.761.064-.393.842-3.576 1.807-8.936z" fill="#9dc63d"></path><path d="m358.18 460.881c-119.061 0-219.063-81.597-247.137-191.919l-42.812 158.916c46.618 50.864 113.602 82.755 188.036 82.755 60.268 0 116.028-21.024 159.941-56.404-18.674 4.354-38.105 6.652-58.028 6.652z" fill="#69b76b"></path><g><g><path d="m286.449 97.995-20.524-29.969c-5.817-8.494-16.611-12.028-26.317-8.597-5.981 2.114-13.436 5.479-22.347 10.816-5.603 3.356-6.874 10.931-2.636 15.899l29.84 34.981z" fill="#0360e8"></path></g><g><path d="m154.837 335.885h-8.299c-3.523 0-6.592-2.401-7.441-5.82l-8.556-34.474h40.293l-8.556 34.474c-.849 3.42-3.918 5.82-7.441 5.82z" fill="#373c41"></path></g><g><path d="m221.552 335.885h-8.299c-3.523 0-6.592-2.401-7.441-5.82l-8.556-34.474h40.294l-8.556 34.474c-.849 3.42-3.919 5.82-7.442 5.82z" fill="#373c41"></path></g><g><path d="m361.589 335.885h-8.299c-3.523 0-6.592-2.401-7.441-5.82l-8.556-34.474h40.293l-8.556 34.474c-.849 3.42-3.919 5.82-7.441 5.82z" fill="#50555a"></path></g><g><path d="m411.79 335.885h-8.299c-3.523 0-6.592-2.401-7.441-5.82l-8.556-34.474h40.294l-8.556 34.474c-.849 3.42-3.919 5.82-7.442 5.82z" fill="#50555a"></path></g><g><path d="m465.295 335.885h-8.299c-3.523 0-6.592-2.401-7.441-5.82l-8.556-34.474h40.293l-8.556 34.474c-.849 3.42-3.918 5.82-7.441 5.82z" fill="#50555a"></path></g><path d="m506.587 206.755c-7.586-5.339-17.874-9.386-31.157-12.649l-54.294-12.24c-53.07-11.964-100.536-41.521-134.687-83.87l-40.079 9.196c-19.374 4.445-39.242 5.643-58.818 3.654v124.789h322.942c-.76-9.793-2.073-19.43-3.907-28.88z" fill="#2896ff"></path><path d="m511.267 255.633c0-6.992-.282-13.919-.834-20.769l-245.266-.174c-42.091-.03-76.271-34.023-76.542-76.113-.145-22.377-.227-42.328-.111-47.637-15.249-1.468-30.328-4.866-44.865-10.176-11.38-4.158-22.395-6.304-28.887-2.769-24.385 13.279-23.765 45.425-22.579 75.657l57.625 96.109h361.07c.243-4.457.389-9.184.389-14.128z" fill="#2477f9"></path><path d="m507.274 300.936c1.3-7.213 2.941-18.369 3.646-31.974h-257.678v39.633h230.61c8.762-.001 16.86-2.845 23.422-7.659z" fill="#50555a"></path><g><path d="m92.182 269.762h87.377c1.275-5.947 1.961-12.146 1.961-18.525 0-44.16-32.305-79.959-72.156-79.959-6.038 0-11.576.827-17.182 2.375.062 11.393-.054 22.793 0 32.552z" fill="#ffc305"></path></g><g><path d="m131.639 308.594h123.182v-39.633h-162.639c0 21.889 17.569 39.633 39.457 39.633z" fill="#373c41"></path></g><g><path d="m267.258 147.56c-3.951 0-7.693-2.356-9.271-6.242-2.076-5.118.389-10.95 5.507-13.026l40.492-16.431c5.122-2.076 10.95.389 13.026 5.506 2.076 5.118-.389 10.95-5.507 13.026l-40.492 16.431c-1.231.499-2.504.736-3.755.736z" fill="#0540e5"></path></g><g><circle cx="304.766" cy="164.471" fill="#2477f9" r="14.923"></circle></g><g><path d="m304.769 169.475c-3.951 0-7.693-2.356-9.271-6.242-2.076-5.118.389-10.95 5.507-13.026l33.549-13.614c5.117-2.078 10.949.389 13.026 5.506 2.076 5.118-.389 10.95-5.507 13.026l-33.549 13.614c-1.23.499-2.503.736-3.755.736z" fill="#0540e5"></path></g><g><circle cx="267.466" cy="142.348" fill="#2477f9" r="14.923"></circle></g><g><circle cx="344.037" cy="182.697" fill="#2477f9" r="14.923"></circle></g><g><path d="m344.042 188.087c-3.951 0-7.693-2.356-9.271-6.242-2.076-5.118.389-10.95 5.507-13.026l33.548-13.614c5.118-2.079 10.949.389 13.026 5.506 2.076 5.118-.389 10.95-5.507 13.026l-33.548 13.614c-1.231.499-2.503.736-3.755.736z" fill="#0540e5"></path></g><g><path d="m267.258 147.56c-3.951 0-7.693-2.356-9.271-6.242-2.076-5.118.389-10.95 5.507-13.026l10.708-4.345c5.118-2.078 10.949.389 13.026 5.506 2.076 5.118-.389 10.95-5.507 13.026l-10.708 4.345c-1.231.499-2.503.736-3.755.736z" fill="#003dc6"></path></g><g><path d="m304.769 169.475c-3.951 0-7.693-2.356-9.271-6.242-2.076-5.118.389-10.95 5.507-13.026l7.235-2.936c5.118-2.078 10.949.389 13.026 5.506 2.076 5.118-.389 10.95-5.507 13.026l-7.235 2.936c-1.23.499-2.503.736-3.755.736z" fill="#003dc6"></path></g><g><path d="m344.042 188.087c-3.951 0-7.693-2.356-9.271-6.242-2.076-5.118.389-10.95 5.507-13.026l6.903-2.801c5.122-2.077 10.95.39 13.026 5.506 2.076 5.118-.389 10.95-5.507 13.026l-6.903 2.801c-1.231.499-2.504.736-3.755.736z" fill="#003dc6"></path></g><g><circle cx="212.551" cy="176.695" fill="#0360e8" r="39.138"></circle></g><g><path d="m212.551 129.342v78.275c21.615 0 39.138-17.522 39.138-39.137 0-21.616-17.522-39.138-39.138-39.138z" fill="#fff"></path></g><g><path d="m173.414 168.479c0 21.615 17.522 39.137 39.138 39.137v-78.275c-21.616.001-39.138 17.523-39.138 39.138z" fill="#c8e6eb"></path></g></g><g><g><path d="m194.715 191.96-20.524-29.969c-5.817-8.494-16.611-12.028-26.317-8.597-5.981 2.114-13.436 5.479-22.347 10.816-5.603 3.356-6.874 10.931-2.636 15.899l29.84 34.981z" fill="#0360e8"></path></g><g><path d="m63.103 429.85h-8.299c-3.523 0-6.592-2.401-7.441-5.82l-8.556-34.474h40.293l-8.556 34.474c-.849 3.419-3.918 5.82-7.441 5.82z" fill="#373c41"></path></g><g><path d="m129.818 429.85h-8.299c-3.523 0-6.592-2.401-7.441-5.82l-8.556-34.474h40.294l-8.556 34.474c-.849 3.419-3.919 5.82-7.442 5.82z" fill="#373c41"></path></g><g><path d="m269.855 429.85h-8.299c-3.523 0-6.592-2.401-7.441-5.82l-8.556-34.474h40.294l-8.556 34.474c-.85 3.419-3.919 5.82-7.442 5.82z" fill="#50555a"></path></g><g><path d="m320.056 429.85h-8.299c-3.523 0-6.592-2.401-7.441-5.82l-8.556-34.474h40.293l-8.556 34.474c-.848 3.419-3.918 5.82-7.441 5.82z" fill="#50555a"></path></g><g><path d="m373.561 429.85h-8.299c-3.523 0-6.592-2.401-7.441-5.82l-8.556-34.474h40.294l-8.556 34.474c-.85 3.419-3.919 5.82-7.442 5.82z" fill="#50555a"></path></g><g><path d="m431.421 329.598c-2.295-22.241-16.999-33.979-47.725-41.528l-54.294-12.24c-53.07-11.964-100.536-41.521-134.687-83.87l-40.079 9.196c-19.374 4.445-39.242 5.643-58.818 3.654v124.789h335.603z" fill="#2896ff"></path></g><g><path d="m58.073 363.726h373.678v-27.602c0-2.55-.136-4.975-.407-7.287l-257.91-.183c-42.091-.03-76.271-34.023-76.542-76.113-.145-22.377-.227-42.328-.111-47.637-15.249-1.468-30.328-4.866-44.865-10.176-11.38-4.158-22.395-6.304-28.887-2.769-24.385 13.279-23.765 45.424-22.579 75.657z" fill="#2477f9"></path></g><g><path d="m161.508 402.559h230.61c21.889 0 39.633-17.744 39.633-39.633h-270.243z" fill="#50555a"></path></g><g><path d="m.448 363.726h87.377c1.275-5.947 1.961-12.146 1.961-18.525 0-44.16-32.305-79.959-72.156-79.959-6.038 0-11.576.827-17.182 2.375.062 11.393-.054 22.793 0 32.552v63.557z" fill="#ffd23c"></path></g><g><path d="m39.906 402.559h123.182v-39.633h-162.64c0 21.889 17.569 39.633 39.458 39.633z" fill="#373c41"></path></g><g><path d="m175.524 241.524c-3.951 0-7.693-2.356-9.271-6.242-2.076-5.118.389-10.95 5.507-13.026l40.492-16.431c5.122-2.076 10.95.389 13.026 5.506 2.076 5.118-.389 10.95-5.507 13.026l-40.492 16.431c-1.231.499-2.504.736-3.755.736z" fill="#0540e5"></path></g><g><circle cx="213.032" cy="258.435" fill="#2477f9" r="14.923"></circle></g><g><path d="m213.035 263.439c-3.951 0-7.693-2.356-9.271-6.242-2.076-5.118.389-10.95 5.507-13.026l33.549-13.614c5.117-2.078 10.949.389 13.026 5.506 2.076 5.118-.389 10.95-5.507 13.026l-33.549 13.614c-1.23.5-2.503.736-3.755.736z" fill="#0540e5"></path></g><g><circle cx="175.732" cy="236.313" fill="#2477f9" r="14.923"></circle></g><g><circle cx="252.304" cy="276.661" fill="#2477f9" r="14.923"></circle></g><g><path d="m252.308 282.051c-3.951 0-7.693-2.356-9.271-6.242-2.076-5.118.389-10.95 5.507-13.026l33.548-13.614c5.118-2.079 10.949.389 13.026 5.506 2.076 5.118-.389 10.95-5.507 13.026l-33.548 13.614c-1.231.5-2.503.736-3.755.736z" fill="#0540e5"></path></g><g><path d="m175.524 241.524c-3.951 0-7.693-2.356-9.271-6.242-2.076-5.118.389-10.95 5.507-13.026l10.708-4.345c5.118-2.078 10.949.389 13.026 5.506 2.076 5.118-.389 10.95-5.507 13.026l-10.708 4.345c-1.231.5-2.503.736-3.755.736z" fill="#003dc6"></path></g><g><path d="m213.035 263.439c-3.951 0-7.693-2.356-9.271-6.242-2.076-5.118.389-10.95 5.507-13.026l7.235-2.936c5.118-2.078 10.949.389 13.026 5.506 2.076 5.118-.389 10.95-5.507 13.026l-7.235 2.936c-1.23.5-2.503.736-3.755.736z" fill="#003dc6"></path></g><g><path d="m252.308 282.051c-3.951 0-7.693-2.356-9.271-6.242-2.076-5.118.389-10.95 5.507-13.026l6.903-2.801c5.122-2.077 10.95.39 13.026 5.506 2.076 5.118-.389 10.95-5.507 13.026l-6.903 2.801c-1.231.499-2.504.736-3.755.736z" fill="#003dc6"></path></g><g><circle cx="120.818" cy="270.659" fill="#0360e8" r="39.138"></circle></g><g><path d="m120.818 223.306v78.275c21.615 0 39.138-17.522 39.138-39.137-.001-21.615-17.523-39.138-39.138-39.138z" fill="#fff"></path></g><g><path d="m81.68 262.444c0 21.615 17.522 39.137 39.138 39.137v-78.275c-21.616 0-39.138 17.523-39.138 39.138z" fill="#c8e6eb"></path></g></g></g></svg>